<?xml version="1.0" encoding="UTF-8" standalone="no"?>
<svg width="156px" height="76px" viewBox="0 0 156 76" version="1.1" xmlns="http://www.w3.org/2000/svg" xmlns:xlink="http://www.w3.org/1999/xlink" xmlns:sketch="http://www.bohemiancoding.com/sketch/ns">
    <!-- Generator: Sketch 3.2 (9964) - http://www.bohemiancoding.com/sketch -->
    <title>Artboard 1</title>
    <desc>Created with Sketch.</desc>
    <defs>
        <path id="path-1" d="M1,0.204 L155.103,0.204 L155.103,75 L1,75"></path>
        <path id="path-3" d="M1,0.204 L155.103,0.204 L155.103,75 L1,75 L1,0.204 Z"></path>
    </defs>
    <g id="Page-1" stroke="none" stroke-width="1" fill="none" fill-rule="evenodd" sketch:type="MSPage">
        <g id="Artboard-1" sketch:type="MSArtboardGroup">
            <path d="M84.46,38.2832 C83.367,39.9282 80.973,42.5272 77.625,42.1102 C74.692,41.7422 79.248,31.6482 83.73,29.1112 C82.527,30.7562 81.028,35.1752 85.477,35.6882 C85.526,35.6932 85.577,35.6982 85.627,35.7022 C85.378,36.5702 85.01,37.4532 84.46,38.2832 M62.684,39.2802 C59.825,39.2832 61.135,35.9302 63.129,35.8092 C64.718,35.7132 65.34,37.0692 65.177,38.8772 C64.24,39.1622 63.393,39.2812 62.684,39.2802 M86.21,30.3162 C86.168,30.6552 86.174,31.2212 86.152,31.9252 C85.463,31.6022 85.371,31.0132 86.21,30.3162 M11.397,61.8282 C3.778,67.2202 4.286,45.9092 19.377,40.4002 C20.944,39.8282 22.481,39.3642 24.061,38.9692 C21.093,48.5132 16.781,58.0172 11.397,61.8282 M108.821,38.3482 C109.645,33.8712 112.951,25.4512 114.642,24.6552 C113.353,23.7652 109.329,21.2962 106.474,27.2412 C104.237,31.9042 102.655,36.3392 102.143,39.9922 C101.194,41.6102 100,42.8862 98.356,43.1292 C94.326,43.7252 97.069,27.1172 106.107,26.3342 C104.857,23.3472 97.767,24.0062 93.208,30.4612 C92.077,31.1372 90.96,31.5892 89.944,31.8612 C90.019,31.0082 89.968,30.2052 89.753,29.4902 C89.078,27.2452 86.673,27.7062 85.278,28.1662 C84.538,27.4102 83.125,26.5222 82.32,26.4502 C78.273,26.0872 74.026,29.9952 71.592,34.5392 C70.667,35.5602 69.733,36.3822 68.819,37.0332 C69.478,32.5552 68.08,28.0442 62.067,30.3122 C56.886,32.2652 53.274,43.8642 61.107,43.1572 C62.095,43.0672 63.034,42.9002 63.922,42.6692 C63.85,42.7982 63.774,42.9272 63.698,43.0542 C61.174,47.1522 58.013,49.3242 56.101,49.5712 C54.189,49.8172 51.13,49.9592 52.226,42.7722 C52.681,39.7832 54.802,35.5432 56.56,32.8492 C56.832,32.4302 56.857,31.9132 56.623,31.5062 C56.389,31.0992 55.935,30.8732 55.446,30.9192 C53.9,31.0642 52.34,31.2122 50.772,31.3662 C49.254,31.5152 47.731,31.6722 46.205,31.8382 C48.238,26.2232 50.613,19.7482 51.031,18.5142 C52.415,14.4272 53.246,3.8862 43.504,7.8772 C45.881,11.3282 41.598,24.2742 39.793,30.5932 C39.615,31.2152 39.397,31.9252 39.147,32.7032 C36.658,33.0482 34.2,33.4392 31.802,33.8932 C32.488,31.4332 33.424,28.1812 35.029,22.9162 C37.712,14.1122 32.637,11.9782 28.27,13.9442 C29.36,14.2832 28.167,24.3832 25.114,35.3842 C13.001,38.5652 3.488,44.0742 1.301,54.7072 C-1.746,69.5342 19.164,75.0092 28.992,43.6672 C29.787,41.1352 30.272,39.4372 30.758,37.6802 C32.875,37.3652 35.187,37.0782 37.809,36.7632 C35.389,43.9962 32.15,53.5382 32.758,56.8942 C33.448,60.7072 36.213,63.4602 42.966,60.5352 C40.038,58.1612 42.033,43.7102 43.685,38.9102 C43.953,38.1272 44.315,37.1032 44.733,35.9332 C46.004,35.7772 47.34,35.6082 48.746,35.4262 C47.379,37.4762 46.727,39.6792 45.853,42.1432 C43.97,47.4502 44.331,55.1132 51.681,55.5812 C58.493,56.0142 65.186,46.6532 67.575,41.2632 C68.564,40.7492 69.47,40.1632 70.294,39.5392 C70.376,41.7572 71.333,43.7462 72.873,45.0142 C71.314,46.1122 69.427,47.3782 68.471,48.4912 C67.462,49.6672 67.633,50.9932 69.018,51.6262 C70.403,52.2592 76.258,53.2872 78.255,54.0022 C85.613,56.6312 81.406,64.1522 77.924,67.6992 C69.231,76.5472 58.964,67.9982 70.579,58.6692 C70.71,59.1242 69.671,60.4932 68.922,61.3182 C71.383,59.8962 71.966,58.4802 71.394,57.6112 C70.418,56.1302 67.954,56.5932 66.74,57.0192 C65.158,57.5752 63.512,58.7712 62.487,61.1232 C59.464,68.0532 64.53,76.7182 74.148,74.7032 C85.784,72.2702 98.788,51.7562 74.258,47.7512 C74.72,47.3872 75.361,46.8642 75.951,46.3782 C78.018,46.6812 80.49,46.0212 83.091,43.9242 C85.286,42.1562 87.773,38.7222 89.076,35.3522 C89.714,35.1622 90.368,34.8982 91.028,34.5462 C88.659,40.5092 89.566,45.8902 92.069,48.0392 C94.305,49.9562 98.981,49.1352 102.059,44.0852 C102.665,50.3832 105.496,53.7512 110.03,54.3212 C113.208,54.7202 115.209,52.8362 115.134,52.2512 C108.322,53.0912 106.966,48.4462 108.821,38.3482" id="Fill-1" fill="#DBDEDB" sketch:type="MSShapeGroup"></path>
            <mask id="mask-2" sketch:name="Clip 4" fill="white">
                <use xlink:href="#path-1"></use>
            </mask>
            <g id="Clip-4"></g>
            <path d="M120.6641,43.1162 C119.0901,46.7812 114.6281,47.1752 114.5501,45.4042 C114.5081,44.4292 115.6501,43.4402 117.4411,42.4262 C118.5701,41.7872 119.7241,41.0952 120.9091,40.3182 C121.1331,41.2612 121.0541,42.2072 120.6641,43.1162 M149.7381,29.1692 C151.2511,24.7502 153.6551,19.1072 149.2531,18.9722 C145.9481,18.8712 142.4071,22.1012 139.6281,25.0932 C140.4011,22.8172 141.3201,20.2252 143.1641,14.8452 C145.4961,8.0352 148.8641,-2.0888 136.3361,0.6682 C138.5551,2.8392 137.1141,12.8482 135.2011,19.3662 C134.6481,21.2532 134.0791,23.2812 133.5291,25.2892 C130.4551,29.3152 127.6751,31.8062 124.2791,34.2662 C123.1421,32.6472 122.0121,31.4032 121.6751,30.9032 C119.0991,27.0612 122.7401,24.3892 126.1841,24.9122 C130.2991,25.5362 125.1191,29.3322 123.8341,29.8202 C124.5451,30.3092 125.9951,30.8102 127.8701,29.5112 C129.7431,28.2142 133.0181,23.2102 126.0891,22.1262 C117.6001,20.7972 109.7991,30.0612 118.1011,36.4402 C118.5911,36.8162 119.0191,37.2062 119.3881,37.6082 C118.1701,38.4142 116.8661,39.2752 115.4481,40.2312 C112.9581,41.9092 110.9421,43.9772 110.8951,45.6672 C110.6861,53.1422 125.9821,48.0332 126.9551,42.0672 C127.2431,40.2942 126.6591,38.4212 125.7801,36.7172 C127.7841,35.0512 129.8831,33.0662 132.0931,30.6312 C131.3431,33.4662 130.7111,35.9052 130.3231,37.3532 C129.4501,40.6012 129.2111,46.4942 136.9731,43.9682 C136.0771,40.2802 136.8361,33.9132 138.1731,29.5392 C140.5891,26.7632 143.1301,24.4832 143.8341,24.9042 C144.6891,25.4162 144.0671,27.8792 143.2221,30.0332 C140.3591,37.3222 142.2011,47.3102 149.9981,48.2912 C153.1751,48.6902 155.1761,46.8052 155.1011,46.2202 C145.7451,47.3742 146.5151,38.1682 149.7381,29.1692" id="Fill-3" fill="#DBDEDB" sketch:type="MSShapeGroup" mask="url(#mask-2)"></path>
            <path d="M95.2344,67.1064 C95.7494,67.4024 96.5224,67.6594 97.3334,67.6594 C98.3504,67.6594 98.9174,67.1834 98.9174,66.4754 C98.9174,65.8184 98.4784,65.4324 97.3714,65.0334 C95.9424,64.5184 95.0284,63.7584 95.0284,62.5094 C95.0284,61.0934 96.2134,60.0114 98.0914,60.0114 C99.0324,60.0114 99.7284,60.2174 100.1784,60.4494 L99.7934,61.7244 C99.4834,61.5564 98.8784,61.3124 98.0664,61.3124 C97.0634,61.3124 96.6244,61.8534 96.6244,62.3554 C96.6244,63.0244 97.1264,63.3334 98.2864,63.7844 C99.7934,64.3504 100.5264,65.1104 100.5264,66.3594 C100.5264,67.7504 99.4694,68.9604 97.2294,68.9604 C96.3164,68.9604 95.3624,68.7024 94.8854,68.4194 L95.2344,67.1064 Z" id="Fill-6" fill="#DBDEDB" sketch:type="MSShapeGroup" mask="url(#mask-2)"></path>
            <path d="M106.1904,61.4795 L103.7184,61.4795 L103.7184,60.1535 L110.2724,60.1535 L110.2724,61.4795 L107.7754,61.4795 L107.7754,68.8315 L106.1904,68.8315 L106.1904,61.4795 Z" id="Fill-8" fill="#DBDEDB" sketch:type="MSShapeGroup" mask="url(#mask-2)"></path>
            <path d="M115.4346,60.1533 L115.4346,65.2133 C115.4346,66.9133 116.1436,67.6983 117.2116,67.6983 C118.3586,67.6983 119.0396,66.9133 119.0396,65.2133 L119.0396,60.1533 L120.6236,60.1533 L120.6236,65.1103 C120.6236,67.7883 119.2466,68.9733 117.1616,68.9733 C115.1526,68.9733 113.8506,67.8533 113.8506,65.1233 L113.8506,60.1533 L115.4346,60.1533 Z" id="Fill-10" fill="#DBDEDB" sketch:type="MSShapeGroup" mask="url(#mask-2)"></path>
            <path d="M126.5967,67.6216 C126.8167,67.6596 127.1517,67.6596 127.4727,67.6596 C129.5337,67.6726 130.7557,66.5396 130.7557,64.3376 C130.7697,62.4196 129.6617,61.3256 127.6787,61.3256 C127.1767,61.3256 126.8167,61.3636 126.5967,61.4146 L126.5967,67.6216 Z M125.0137,60.2686 C125.7087,60.1536 126.5967,60.0886 127.5377,60.0886 C129.1597,60.0886 130.2797,60.4236 131.0767,61.0936 C131.9157,61.7756 132.4297,62.8056 132.4297,64.2866 C132.4297,65.8316 131.9027,66.9906 131.0767,67.7376 C130.2147,68.5226 128.8367,68.9216 127.1517,68.9216 C126.2227,68.9216 125.5297,68.8706 125.0137,68.8066 L125.0137,60.2686 Z" id="Fill-12" fill="#DBDEDB" sketch:type="MSShapeGroup" mask="url(#mask-2)"></path>
            <mask id="mask-4" sketch:name="Clip 15" fill="white">
                <use xlink:href="#path-3"></use>
            </mask>
            <g id="Clip-15"></g>
            <path d="M137.966,68.832 L136.382,68.832 L136.382,60.154 L137.966,60.154 L137.966,68.832 Z" id="Fill-14" fill="#DBDEDB" sketch:type="MSShapeGroup" mask="url(#mask-4)"></path>
            <path d="M143.5791,64.5313 C143.5791,66.2953 144.4671,67.6983 145.9871,67.6983 C147.5191,67.6983 148.3821,66.2823 148.3821,64.4663 C148.3821,62.8313 147.5701,61.2863 145.9871,61.2863 C144.4161,61.2863 143.5791,62.7413 143.5791,64.5313 M150.0561,64.4023 C150.0561,67.3123 148.2921,68.9733 145.8971,68.9733 C143.4491,68.9733 141.9051,67.1063 141.9051,64.5563 C141.9051,61.8913 143.5791,60.0113 146.0241,60.0113 C148.5621,60.0113 150.0561,61.9303 150.0561,64.4023" id="Fill-16" fill="#DBDEDB" sketch:type="MSShapeGroup" mask="url(#mask-4)"></path>
        </g>
    </g>
</svg>