<?xml version="1.0" encoding="utf-8"?>
<!-- Generator: Adobe Illustrator 16.0.0, SVG Export Plug-In . SVG Version: 6.00 Build 0)  -->
<!DOCTYPE svg PUBLIC "-//W3C//DTD SVG 1.1//EN" "http://www.w3.org/Graphics/SVG/1.1/DTD/svg11.dtd">
<svg version="1.1"
	 id="Layer_1" xmlns:cc="http://creativecommons.org/ns#" xmlns:dc="http://purl.org/dc/elements/1.1/" xmlns:rdf="http://www.w3.org/1999/02/22-rdf-syntax-ns#"
	 xmlns="http://www.w3.org/2000/svg" xmlns:xlink="http://www.w3.org/1999/xlink" x="0px" y="0px" width="24px" height="24px"
	 viewBox="0 0 24 24" enable-background="new 0 0 24 24" xml:space="preserve">
<g transform="translate(0 -1028.4)">
	<path fill="#95A5A6" d="M8.875,1047.4c0.013,0.169,0.031,0.327,0.031,0.5c0,1.863-0.747,3.505-1.906,4.5h4h2h4
		c-1.16-0.995-1.906-2.637-1.906-4.5c0-0.173,0.018-0.331,0.031-0.5H13h-2H8.875z"/>
	<path fill="#7F8C8D" d="M8.875,1047.4c0.013,0.1,0.031,0.301,0.031,0.5c0,0.5-0.046,1-0.156,1.5h6.5c-0.109-0.5-0.156-1-0.156-1.5
		c0-0.199,0.018-0.4,0.031-0.5H13h-2H8.875z"/>
	<path fill="#BDC3C7" d="M1,1031.4c-0.552,0-1,0.4-1,1v1v2v2v2v1v1v1v2v2v1c0,0.5,0.448,1,1,1h1h13h6h1h1c0.552,0,1-0.5,1-1v-1v-7
		v-1v-1v-2v-2v-1c0-0.6-0.448-1-1-1h-1h-5h-1H7H3H2H1z"/>
	<rect x="1" y="1032.4" fill="#34495E" width="22" height="14"/>
	<path fill="#2C3E50" d="M23,1033.4l-21,13h19.582H23v-1.6V1033.4z"/>
</g>
<rect x="1" y="4" fill="#F39C12" width="22" height="14"/>
<path fill="#E67E22" d="M18.625,6.625L8.281,17H23v-6L18.625,6.625z"/>
<path fill="#F1C40F" d="M9.208,8.5c0,1.933-1.567,3.5-3.5,3.5s-3.5-1.567-3.5-3.5S3.775,5,5.708,5S9.208,6.567,9.208,8.5z"/>
<path fill="#D35400" d="M6.094,9.094L1,14.188V17h13L6.094,9.094z"/>
<path fill="#FFFFFF" d="M10.285,14.775c0,0.322-0.26,0.582-0.581,0.582c-0.321,0-0.582-0.26-0.582-0.582
	c0-0.321,0.261-0.582,0.582-0.582C10.025,14.193,10.285,14.454,10.285,14.775z"/>
<path fill="#FFFFFF" d="M12.598,14.775c0,0.322-0.26,0.582-0.582,0.582c-0.321,0-0.582-0.26-0.582-0.582
	c0-0.321,0.261-0.582,0.582-0.582C12.337,14.193,12.598,14.454,12.598,14.775z"/>
<path fill="#FFFFFF" d="M14.878,14.775c0,0.322-0.261,0.582-0.582,0.582c-0.32,0-0.581-0.26-0.581-0.582
	c0-0.321,0.261-0.582,0.581-0.582C14.617,14.193,14.878,14.454,14.878,14.775z"/>
<rect x="1" y="16.5" fill="#E3FFE9" width="22" height="1.5"/>
</svg>
