<?xml version="1.0" encoding="UTF-8" standalone="no"?>
<svg width="101px" height="17px" viewBox="0 0 101 17" version="1.1" xmlns="http://www.w3.org/2000/svg" xmlns:xlink="http://www.w3.org/1999/xlink" xmlns:sketch="http://www.bohemiancoding.com/sketch/ns">
    <!-- Generator: Sketch 3.1.1 (8761) - http://www.bohemiancoding.com/sketch -->
    <title>logo-vs-sticky-white</title>
    <desc>Created with Sketch.</desc>
    <defs></defs>
    <g id="Page-1" stroke="none" stroke-width="1" fill="none" fill-rule="evenodd" sketch:type="MSPage">
        <g id="logo-vs-sticky-white" sketch:type="MSArtboardGroup">
            <g id="logo-vs-sticky-2" sketch:type="MSLayerGroup" fill="#FFFFFF">
                <path d="M12.1218947,0.521333333 L9.18596491,8.98733333 C8.86863158,9.928 8.57992982,10.7972667 8.31866667,11.5928667 C8.05621053,12.3907333 7.75915789,13.2509333 7.42392982,14.1757333 L7.31178947,14.1757333 C6.95747368,13.2509333 6.65445614,12.3907333 6.40273684,11.5928667 C6.15101754,10.7961333 5.85873684,9.928 5.52231579,8.98733333 L2.58519298,0.521333333 L0.0966315789,0.521333333 L5.96968421,16.2078 L8.68133333,16.2078 L14.4983158,0.521333333 L12.1218947,0.521333333 L12.1218947,0.521333333 Z M18.5544561,0.521333333 L12.3461754,16.2078 L14.7225965,16.2078 L16.4834386,11.4262667 L23.1689123,11.4262667 L24.9023158,16.2078 L27.3896842,16.2078 L21.1837895,0.521333333 L18.5544561,0.521333333 L18.5544561,0.521333333 Z M22.5807719,9.8226 L17.0715789,9.8226 L17.9388772,7.4324 C18.2752982,6.55633333 18.5902456,5.68253333 18.8908772,4.8144 C19.1879298,3.944 19.4778246,3.0566 19.7569825,2.14653333 L19.8703158,2.14653333 C20.1685614,3.0566 20.465614,3.944 20.7650526,4.8144 C21.0632982,5.68366667 21.3806316,6.55633333 21.7158596,7.4324 L22.5807719,9.8226 L22.5807719,9.8226 Z M38.6061053,9.77613333 C38.6061053,10.7168 38.4939649,11.5056 38.2720702,12.1436667 C38.0465965,12.7828667 37.738807,13.2917333 37.3463158,13.6748 C36.9526316,14.0578667 36.4992982,14.3332667 35.974386,14.501 C35.4554386,14.6676 34.885193,14.7526 34.270807,14.7526 C33.6731228,14.7526 33.113614,14.6676 32.5922807,14.501 C32.0685614,14.3332667 31.617614,14.059 31.2346667,13.6748 C30.8529123,13.2928667 30.5487018,12.784 30.326807,12.1436667 C30.1025263,11.5067333 29.9915789,10.7168 29.9915789,9.77613333 L29.9915789,0.521333333 L27.6712281,0.521333333 L27.6712281,9.72626667 C27.6712281,10.9865333 27.8382456,12.0473333 28.1734737,12.9075333 C28.5098947,13.7666 28.970386,14.4658667 29.5573333,14.9996667 C30.1454737,15.5346 30.8445614,15.9188 31.6557895,16.15 C32.4658246,16.3823333 33.3367018,16.4979333 34.269614,16.4979333 C35.2049123,16.4979333 36.0698246,16.3823333 36.8727018,16.15 C37.673193,15.9188 38.3687018,15.5357333 38.9556491,14.9996667 C39.5414035,14.4658667 40.0042807,13.7688667 40.3407018,12.9075333 C40.6771228,12.0484667 40.8441404,10.9865333 40.8441404,9.72626667 L40.8441404,0.521333333 L38.6084912,0.521333333 L38.6061053,9.77613333 L38.6061053,9.77613333 Z M53.7939649,9.3568 C53.4563509,9.03153333 53.0543158,8.74366667 52.5902456,8.4966 C52.1214035,8.24953333 51.6287018,8.0308 51.1085614,7.83926667 L48.5066667,6.88273333 C48.1344561,6.75693333 47.7694035,6.6164 47.4150877,6.46453333 C47.0631579,6.3138 46.7350877,6.13813333 46.4380351,5.9398 C46.1385965,5.74033333 45.9,5.508 45.7246316,5.24733333 C45.5468772,4.9844 45.4597895,4.6614 45.4597895,4.27833333 C45.4597895,3.56093333 45.7735439,2.99766667 46.3974737,2.59193333 C47.0202105,2.1862 47.8445614,1.9822 48.8729123,1.9822 C49.7294737,1.9822 50.5001404,2.11366667 51.1789474,2.3766 C51.8589474,2.6384 52.4792982,3.00106667 53.037614,3.46346667 L54.2974035,2.1726 C53.6436491,1.598 52.8538947,1.13106667 51.9185965,0.774066667 C50.9868772,0.415933333 49.9704561,0.235733333 48.8741053,0.235733333 C48.0330526,0.235733333 47.2647719,0.338866667 46.5644912,0.546266667 C45.8677895,0.753666667 45.2593684,1.04493333 44.745193,1.42006667 C44.2322105,1.79406667 43.8337544,2.23606667 43.5426667,2.74606667 C43.2563509,3.25606667 43.112,3.80686667 43.112,4.39506667 C43.112,4.9708 43.2217544,5.47626667 43.4484211,5.91373333 C43.6715088,6.3512 43.9602105,6.72973333 44.3181053,7.05046667 C44.6712281,7.37006667 45.0708772,7.6398 45.5182456,7.86306667 C45.9644211,8.08633333 46.4022456,8.27786667 46.8317193,8.43766667 L49.4610526,9.418 C49.8881404,9.59366667 50.2889825,9.76253333 50.661193,9.92006667 C51.0369825,10.0798667 51.3578947,10.2589333 51.6275088,10.4584 C51.8983158,10.6601333 52.1118596,10.8981333 52.2693333,11.1769333 C52.430386,11.4557333 52.5091228,11.7934667 52.5091228,12.1924 C52.5091228,12.9574 52.1738947,13.5762 51.5010526,14.0454 C50.8294035,14.5146 49.8905263,14.7514667 48.6772632,14.7514667 C47.7276491,14.7514667 46.8090526,14.5712667 45.9214737,14.212 C45.0374737,13.8538667 44.269193,13.3801333 43.6166316,12.7896667 L42.2172632,14.178 C43.0177544,14.8954 43.9697544,15.4609333 45.0672982,15.878 C46.1672281,16.2916667 47.3602105,16.4979333 48.6474386,16.4979333 C49.6161404,16.4979333 50.4834386,16.3834667 51.2481404,16.15 C52.0152281,15.9199333 52.6654035,15.6003333 53.2070175,15.1946 C53.7474386,14.7877333 54.1614035,14.3128667 54.4512982,13.7711333 C54.737614,13.2294 54.8843509,12.6468667 54.8843509,12.0258 C54.8843509,11.4523333 54.7853333,10.9457333 54.5908772,10.5071333 C54.3940351,10.0674 54.126807,9.68546667 53.7939649,9.3568 L53.7939649,9.3568 Z M67.2842105,10.506 C67.0885614,10.0685333 66.8225263,9.68433333 66.4872982,9.35793333 C66.1508772,9.03266667 65.7488421,8.74366667 65.2859649,8.49773333 C64.8183158,8.25066667 64.3232281,8.03193333 63.8030877,7.83926667 L61.201193,6.88273333 C60.8277895,6.75693333 60.4639298,6.61526667 60.113193,6.46453333 C59.7576842,6.3138 59.432,6.13813333 59.1337544,5.93866667 C58.8331228,5.7392 58.5957193,5.50686667 58.4179649,5.2462 C58.2414035,4.98213333 58.1531228,4.66026667 58.1531228,4.2772 C58.1531228,3.5598 58.4656842,2.99766667 59.089614,2.59193333 C59.7147368,2.18506667 60.5414737,1.9822 61.5650526,1.9822 C62.4204211,1.9822 63.1898947,2.11366667 63.8746667,2.3766 C64.5522807,2.63953333 65.1750175,3.00106667 65.7333333,3.4646 L66.9907368,2.1726 C66.3393684,1.59686667 65.5460351,1.1322 64.6143158,0.774066667 C63.6825965,0.4148 62.6649825,0.2346 61.5674386,0.2346 C60.7287719,0.2346 59.9604912,0.337733333 59.2578246,0.545133333 C58.5611228,0.752533333 57.9538947,1.0438 57.4409123,1.41893333 C56.9291228,1.79406667 56.5282807,2.23493333 56.2395789,2.74493333 C55.9496842,3.25493333 55.8089123,3.80573333 55.8089123,4.39393333 C55.8089123,4.96966667 55.9174737,5.47513333 56.1429474,5.9126 C56.3672281,6.35006667 56.6559298,6.7286 57.0114386,7.04933333 C57.3645614,7.36893333 57.7665965,7.63866667 58.2139649,7.86193333 C58.6601404,8.0852 59.0967719,8.27673333 59.5286316,8.43653333 L62.1591579,9.41573333 C62.5838596,9.59253333 62.9858947,9.76026667 63.3592982,9.9178 C63.7327018,10.0776 64.057193,10.2566667 64.3244211,10.4561333 C64.597614,10.6578667 64.8111579,10.8958667 64.9662456,11.1746667 C65.1249123,11.4534667 65.2072281,11.7912 65.2072281,12.1901333 C65.2072281,12.9551333 64.870807,13.5739333 64.2003509,14.0431333 C63.5287018,14.5123333 62.5862456,14.7492 61.3753684,14.7492 C60.4245614,14.7492 59.5059649,14.569 58.6195789,14.2097333 C57.7355789,13.8527333 56.9661053,13.3778667 56.3135439,12.7885333 L54.9129825,14.1768667 C55.7158596,14.8942667 56.6690526,15.4586667 57.7665965,15.8768667 C58.8677193,16.2916667 60.0618947,16.4979333 61.3467368,16.4979333 C62.3166316,16.4979333 63.1815439,16.3823333 63.9474386,16.1511333 C64.7133333,15.9199333 65.3635088,15.6003333 65.9051228,15.1946 C66.4467368,14.7877333 66.8607018,14.3128667 67.1482105,13.7711333 C67.4369123,13.2294 67.5824561,12.6468667 67.5824561,12.0258 C67.5776842,11.4512 67.4798596,10.9446 67.2842105,10.506 L67.2842105,10.506 Z" id="Shape" sketch:type="MSShapeGroup"></path>
            </g>
            <g id="Group-2" sketch:type="MSLayerGroup" transform="translate(75.000000, 3.000000)">
                <path d="M23.93,0.048 L15.954,9.017 L17.948,9.017 L25.921,0.048 L23.93,0.048 Z" id="Shape" fill="#DD864C" sketch:type="MSShapeGroup"></path>
                <path d="M18.01,0.048 L7.983,11.009 L9.976,11.009 L20.004,0.048 L18.01,0.048 Z" id="Shape" fill="#60AE65" sketch:type="MSShapeGroup"></path>
                <path d="M12.094,0.048 L0.012,13 L2.006,13 L14.086,0.048 L12.094,0.048 Z" id="Shape" fill="#50C0FB" sketch:type="MSShapeGroup"></path>
            </g>
        </g>
    </g>
</svg>