<?xml version="1.0" encoding="UTF-8" standalone="no"?>
<svg width="101px" height="43px" viewBox="0 0 101 43" version="1.1" xmlns="http://www.w3.org/2000/svg" xmlns:xlink="http://www.w3.org/1999/xlink" xmlns:sketch="http://www.bohemiancoding.com/sketch/ns">
    <!-- Generator: Sketch 3.1.1 (8761) - http://www.bohemiancoding.com/sketch -->
    <title>logo-vs</title>
    <desc>Created with Sketch.</desc>
    <defs></defs>
    <g id="Page-1" stroke="none" stroke-width="1" fill="none" fill-rule="evenodd" sketch:type="MSPage">
        <g id="logo-vs" sketch:type="MSArtboardGroup">
            <g sketch:type="MSLayerGroup">
                <path d="M15.314,0.591 L11.595,11.878 C11.194,13.133 10.827,14.291 10.497,15.353 C10.165,16.417 9.789,17.564 9.363,18.797 L9.221,18.797 C8.772,17.563 8.389,16.417 8.07,15.353 C7.751,14.29 7.38,13.133 6.954,11.878 L3.234,0.591 L0.081,0.591 L7.521,21.507 L10.957,21.507 L18.325,0.591 L15.314,0.591 L15.314,0.591 Z M23.463,0.591 L15.598,21.507 L18.609,21.507 L20.839,15.131 L29.307,15.131 L31.503,21.507 L34.655,21.507 L26.793,0.591 L23.463,0.591 L23.463,0.591 Z M28.563,12.993 L21.584,12.993 L22.683,9.805 C23.109,8.636 23.509,7.472 23.888,6.314 C24.265,5.155 24.632,3.97 24.986,2.758 L25.129,2.758 C25.507,3.971 25.883,5.155 26.262,6.314 C26.639,7.473 27.042,8.637 27.467,9.805 L28.563,12.993 L28.563,12.993 Z M48.863,12.93 C48.863,14.184 48.72,15.237 48.439,16.087 C48.154,16.939 47.763,17.618 47.267,18.128 C46.769,18.639 46.193,19.006 45.529,19.229 C44.872,19.452 44.15,19.565 43.371,19.565 C42.613,19.565 41.906,19.452 41.245,19.229 C40.582,19.005 40.01,18.64 39.526,18.128 C39.042,17.619 38.657,16.94 38.376,16.087 C38.092,15.238 37.951,14.185 37.951,12.93 L37.951,0.591 L35.012,0.591 L35.012,12.865 C35.012,14.546 35.224,15.96 35.649,17.107 C36.075,18.253 36.659,19.184 37.402,19.896 C38.147,20.609 39.032,21.121 40.06,21.429 C41.087,21.739 42.189,21.892 43.372,21.892 C44.557,21.892 45.652,21.738 46.67,21.429 C47.684,21.121 48.565,20.611 49.309,19.896 C50.051,19.184 50.637,18.255 51.063,17.107 C51.489,15.961 51.7,14.546 51.7,12.865 L51.7,0.591 L48.868,0.591 L48.863,12.93 L48.863,12.93 Z M68.102,12.372 C67.674,11.939 67.164,11.554 66.577,11.225 C65.985,10.896 65.36,10.604 64.7,10.348 L61.405,9.073 C60.934,8.905 60.471,8.717 60.022,8.515 C59.575,8.314 59.16,8.08 58.784,7.815 C58.405,7.549 58.104,7.239 57.881,6.891 C57.655,6.54 57.545,6.11 57.545,5.599 C57.545,4.642 57.941,3.892 58.733,3.351 C59.522,2.809 60.567,2.538 61.868,2.538 C62.953,2.538 63.929,2.713 64.789,3.063 C65.651,3.413 66.436,3.896 67.143,4.513 L68.739,2.792 C67.91,2.025 66.909,1.403 65.725,0.926 C64.544,0.448 63.256,0.209 61.867,0.209 C60.802,0.209 59.828,0.347 58.942,0.624 C58.059,0.9 57.288,1.289 56.637,1.788 C55.986,2.287 55.483,2.876 55.114,3.557 C54.75,4.237 54.569,4.971 54.569,5.756 C54.569,6.523 54.707,7.198 54.994,7.781 C55.276,8.364 55.643,8.869 56.095,9.297 C56.543,9.723 57.049,10.083 57.616,10.38 C58.182,10.678 58.737,10.933 59.28,11.146 L62.614,12.452 C63.155,12.687 63.663,12.911 64.134,13.121 C64.609,13.334 65.015,13.574 65.357,13.839 C65.699,14.107 65.97,14.425 66.17,14.797 C66.374,15.169 66.475,15.62 66.475,16.152 C66.475,17.172 66.049,17.997 65.198,18.623 C64.348,19.249 63.157,19.564 61.62,19.564 C60.417,19.564 59.254,19.324 58.13,18.845 C57.01,18.368 56.036,17.736 55.211,16.949 L53.438,18.8 C54.451,19.756 55.657,20.51 57.048,21.066 C58.442,21.618 59.952,21.893 61.583,21.893 C62.811,21.893 63.909,21.74 64.877,21.43 C65.848,21.123 66.673,20.697 67.357,20.156 C68.043,19.613 68.566,18.98 68.933,18.258 C69.297,17.536 69.482,16.759 69.482,15.931 C69.482,15.166 69.357,14.491 69.111,13.907 C68.861,13.319 68.523,12.809 68.102,12.372 L68.102,12.372 Z M85.191,13.903 C84.943,13.319 84.607,12.807 84.181,12.372 C83.755,11.938 83.247,11.553 82.66,11.224 C82.068,10.895 81.441,10.604 80.781,10.347 L77.486,9.072 C77.013,8.904 76.552,8.716 76.107,8.514 C75.658,8.313 75.245,8.079 74.867,7.813 C74.486,7.547 74.185,7.237 73.961,6.889 C73.736,6.537 73.625,6.108 73.625,5.597 C73.625,4.64 74.021,3.89 74.813,3.349 C75.606,2.807 76.651,2.536 77.948,2.536 C79.032,2.536 80.007,2.711 80.873,3.062 C81.733,3.413 82.519,3.895 83.226,4.512 L84.82,2.79 C83.994,2.023 82.99,1.402 81.808,0.925 C80.628,0.446 79.34,0.206 77.949,0.206 C76.886,0.206 75.914,0.344 75.025,0.621 C74.142,0.897 73.373,1.286 72.722,1.785 C72.074,2.285 71.566,2.873 71.201,3.554 C70.833,4.234 70.654,4.968 70.654,5.753 C70.654,6.52 70.792,7.195 71.079,7.778 C71.363,8.361 71.728,8.866 72.178,9.294 C72.625,9.72 73.134,10.08 73.7,10.377 C74.265,10.675 74.82,10.93 75.365,11.143 L78.698,12.449 C79.236,12.684 79.746,12.908 80.219,13.118 C80.692,13.331 81.102,13.571 81.44,13.836 C81.785,14.104 82.057,14.422 82.253,14.794 C82.454,15.166 82.558,15.617 82.558,16.149 C82.558,17.169 82.133,17.994 81.284,18.62 C80.431,19.246 79.24,19.561 77.704,19.561 C76.5,19.561 75.336,19.321 74.214,18.842 C73.094,18.365 72.12,17.733 71.294,16.946 L69.52,18.797 C70.537,19.753 71.744,20.506 73.134,21.063 C74.53,21.615 76.041,21.891 77.67,21.891 C78.899,21.891 79.993,21.737 80.963,21.428 C81.934,21.12 82.757,20.694 83.443,20.153 C84.129,19.61 84.652,18.977 85.017,18.255 C85.383,17.533 85.568,16.756 85.568,15.928 C85.563,15.163 85.439,14.488 85.191,13.903 L85.191,13.903 Z" id="Shape" fill="#000000" sketch:type="MSShapeGroup"></path>
                <g id="Group" transform="translate(23.000000, 30.000000)" sketch:type="MSShapeGroup">
                    <path d="M23.93,0.048 L15.954,9.017 L17.948,9.017 L25.921,0.048 L23.93,0.048 Z" id="Shape" fill="#DD864C"></path>
                    <path d="M18.01,0.048 L7.983,11.009 L9.976,11.009 L20.004,0.048 L18.01,0.048 Z" id="Shape" fill="#60AE65"></path>
                    <path d="M12.094,0.048 L0.012,13 L2.006,13 L14.086,0.048 L12.094,0.048 Z" id="Shape" fill="#50C0FB"></path>
                </g>
            </g>
        </g>
    </g>
</svg>