<?xml version="1.0" encoding="UTF-8" standalone="no"?>
<svg width="101px" height="43px" viewBox="0 0 101 43" version="1.1" xmlns="http://www.w3.org/2000/svg" xmlns:xlink="http://www.w3.org/1999/xlink" xmlns:sketch="http://www.bohemiancoding.com/sketch/ns">
    <!-- Generator: Sketch 3.1.1 (8761) - http://www.bohemiancoding.com/sketch -->
    <title>logo-vs-white</title>
    <desc>Created with Sketch.</desc>
    <defs></defs>
    <g id="Page-1" stroke="none" stroke-width="1" fill="none" fill-rule="evenodd" sketch:type="MSPage">
        <g id="logo-vs-white" sketch:type="MSArtboardGroup" fill="#FFFFFF">
            <g sketch:type="MSLayerGroup" id="Group">
                <g sketch:type="MSShapeGroup">
                    <path d="M15.314,0.684 L11.595,11.971 C11.194,13.226 10.827,14.384 10.497,15.446 C10.165,16.51 9.789,17.657 9.363,18.89 L9.221,18.89 C8.772,17.656 8.389,16.51 8.07,15.446 C7.751,14.383 7.38,13.226 6.954,11.971 L3.234,0.684 L0.081,0.684 L7.521,21.599 L10.957,21.599 L18.325,0.684 L15.314,0.684 L15.314,0.684 Z M23.463,0.684 L15.598,21.6 L18.609,21.6 L20.839,15.223 L29.307,15.223 L31.503,21.6 L34.655,21.6 L26.793,0.684 L23.463,0.684 L23.463,0.684 Z M28.563,13.086 L21.584,13.086 L22.683,9.898 C23.109,8.729 23.509,7.565 23.888,6.407 C24.265,5.248 24.632,4.063 24.986,2.851 L25.129,2.851 C25.507,4.064 25.883,5.248 26.262,6.407 C26.639,7.566 27.042,8.73 27.467,9.898 L28.563,13.086 L28.563,13.086 Z M48.863,13.023 C48.863,14.277 48.72,15.33 48.439,16.18 C48.154,17.032 47.763,17.711 47.267,18.221 C46.77,18.732 46.194,19.099 45.53,19.322 C44.872,19.545 44.15,19.658 43.371,19.658 C42.614,19.658 41.906,19.545 41.245,19.322 C40.582,19.098 40.01,18.733 39.526,18.221 C39.042,17.712 38.657,17.033 38.376,16.18 C38.092,15.331 37.951,14.278 37.951,13.023 L37.951,0.684 L35.012,0.684 L35.012,12.958 C35.012,14.639 35.224,16.053 35.649,17.2 C36.075,18.346 36.659,19.277 37.402,19.989 C38.147,20.702 39.032,21.214 40.06,21.522 C41.087,21.831 42.19,21.985 43.372,21.985 C44.556,21.985 45.653,21.83 46.67,21.522 C47.684,21.214 48.564,20.703 49.309,19.989 C50.051,19.277 50.637,18.348 51.063,17.2 C51.489,16.054 51.699,14.639 51.699,12.958 L51.699,0.684 L48.867,0.684 L48.863,13.023 L48.863,13.023 Z M68.101,12.465 C67.674,12.032 67.164,11.647 66.576,11.318 C65.985,10.989 65.36,10.697 64.699,10.441 L61.405,9.166 C60.934,8.998 60.471,8.81 60.022,8.608 C59.574,8.407 59.159,8.173 58.783,7.908 C58.405,7.642 58.103,7.332 57.88,6.984 C57.655,6.633 57.544,6.203 57.544,5.692 C57.544,4.735 57.939,3.985 58.732,3.444 C59.521,2.902 60.567,2.631 61.867,2.631 C62.952,2.631 63.928,2.806 64.788,3.156 C65.65,3.506 66.435,3.989 67.142,4.606 L68.738,2.885 C67.909,2.118 66.908,1.496 65.724,1.019 C64.544,0.541 63.256,0.302 61.866,0.302 C60.801,0.302 59.827,0.44 58.941,0.717 C58.058,0.993 57.287,1.382 56.637,1.881 C55.987,2.38 55.482,2.969 55.114,3.65 C54.749,4.33 54.568,5.064 54.568,5.849 C54.568,6.616 54.706,7.291 54.993,7.874 C55.275,8.457 55.642,8.962 56.094,9.39 C56.542,9.816 57.048,10.176 57.615,10.473 C58.181,10.771 58.736,11.026 59.28,11.239 L62.613,12.545 C63.155,12.78 63.662,13.004 64.133,13.214 C64.607,13.427 65.014,13.667 65.355,13.932 C65.697,14.2 65.969,14.518 66.168,14.89 C66.372,15.262 66.472,15.713 66.472,16.245 C66.472,17.265 66.047,18.09 65.196,18.716 C64.345,19.342 63.154,19.657 61.617,19.657 C60.414,19.657 59.251,19.417 58.127,18.938 C57.007,18.461 56.033,17.829 55.208,17.042 L53.437,18.893 C54.45,19.849 55.656,20.603 57.048,21.159 C58.442,21.711 59.952,21.987 61.583,21.987 C62.811,21.987 63.909,21.833 64.877,21.524 C65.848,21.217 66.673,20.79 67.357,20.249 C68.043,19.706 68.567,19.073 68.934,18.351 C69.298,17.629 69.482,16.852 69.482,16.024 C69.482,15.259 69.358,14.584 69.112,14 C68.862,13.412 68.523,12.902 68.101,12.465 L68.101,12.465 Z M85.191,13.996 C84.943,13.412 84.607,12.9 84.181,12.465 C83.756,12.031 83.248,11.646 82.66,11.317 C82.069,10.988 81.441,10.697 80.781,10.44 L77.487,9.165 C77.014,8.997 76.553,8.809 76.107,8.607 C75.658,8.406 75.245,8.172 74.867,7.906 C74.487,7.64 74.186,7.33 73.961,6.982 C73.737,6.63 73.625,6.201 73.625,5.69 C73.625,4.733 74.021,3.983 74.812,3.442 C75.605,2.9 76.65,2.629 77.947,2.629 C79.031,2.629 80.006,2.804 80.872,3.155 C81.733,3.506 82.518,3.988 83.224,4.605 L84.821,2.883 C83.994,2.116 82.99,1.495 81.809,1.018 C80.629,0.539 79.341,0.299 77.949,0.299 C76.887,0.299 75.914,0.437 75.026,0.714 C74.142,0.99 73.373,1.379 72.722,1.878 C72.074,2.378 71.567,2.966 71.201,3.647 C70.833,4.327 70.655,5.061 70.655,5.846 C70.655,6.613 70.792,7.288 71.079,7.871 C71.363,8.454 71.729,8.959 72.178,9.387 C72.625,9.813 73.134,10.173 73.7,10.47 C74.265,10.768 74.82,11.023 75.365,11.236 L78.698,12.542 C79.237,12.777 79.746,13.001 80.219,13.211 C80.691,13.424 81.101,13.664 81.439,13.929 C81.784,14.197 82.057,14.515 82.252,14.887 C82.453,15.259 82.556,15.71 82.556,16.242 C82.556,17.262 82.132,18.087 81.282,18.713 C80.43,19.339 79.238,19.654 77.702,19.654 C76.498,19.654 75.334,19.414 74.212,18.935 C73.092,18.458 72.118,17.826 71.292,17.039 L69.518,18.89 C70.534,19.846 71.741,20.6 73.132,21.156 C74.527,21.708 76.039,21.984 77.668,21.984 C78.896,21.984 79.991,21.83 80.961,21.521 C81.931,21.214 82.755,20.787 83.441,20.246 C84.127,19.703 84.651,19.07 85.016,18.348 C85.382,17.626 85.566,16.849 85.566,16.021 C85.563,15.256 85.439,14.581 85.191,13.996 L85.191,13.996 Z" id="Shape"></path>
                </g>
                <g transform="translate(23.000000, 30.000000)" sketch:type="MSShapeGroup">
                    <path d="M23.93,0.14 L15.954,9.109 L17.948,9.109 L25.921,0.14 L23.93,0.14 Z" id="Shape"></path>
                    <path d="M18.01,0.14 L7.983,11.101 L9.976,11.101 L20.004,0.14 L18.01,0.14 Z" id="Shape"></path>
                    <path d="M12.094,0.14 L0.012,13.093 L2.006,13.093 L14.086,0.14 L12.094,0.14 Z" id="Shape"></path>
                </g>
            </g>
        </g>
    </g>
</svg>